<svg width="77" height="83" viewBox="0 0 77 83" fill="none" xmlns="http://www.w3.org/2000/svg">
<path d="M53.3719 51.5085C61.4874 52.3001 69.4884 58.8922 69.4884 67.5361C69.4884 76.6358 61.9457 83 53.1427 83C46.402 83 39.9987 80.6127 36.8033 74.3625C36.125 76.9003 34.6034 79.1351 32.4862 80.7034C30.369 82.2716 27.7807 83.0811 25.1424 83C22.105 82.9934 19.1463 82.0387 16.6831 80.2707V71.8612C17.507 72.7727 18.5112 73.5052 19.6327 74.013C20.7542 74.5207 21.969 74.7928 23.201 74.8121C26.8546 74.8121 28.6878 71.6458 28.6878 68.4796V19.7194H37.4844V47.7533C38.8593 47.7533 40.1132 47.7533 41.3735 47.6394C53.0281 47.2974 66.9742 43.8905 66.9742 29.6741C66.9742 15.4576 53.0281 8.18792 38.401 8.18792C22.399 8.18792 8.57387 16.8254 8.57387 33.9992C8.57387 38.6599 9.94238 43.0926 13.1441 46.5058L6.62613 52.0721C1.71223 46.7338 0 41.1612 0 33.9992C0 11.9368 17.1414 0 38.191 0C58.5595 0 76.0191 10.6892 76.0191 29.1295C76 41.3892 66.1976 50.1407 53.3719 51.5085ZM42.1692 54.6748C40.5715 54.6748 39.0884 54.7887 37.4844 54.9027V64.5914C37.4844 71.6458 43.2131 75.5087 50.1702 75.5087C55.5424 75.5087 60.8 72.3424 60.8 66.5292C60.8 56.3972 50.2848 54.6874 42.1692 54.6874V54.6748Z" fill="white"/>
</svg>
